# File created by Blade
# Date/Time:  Wed Jan 21 14:55:15 2015
# Frame Rate: 120.000 fps
#------------------------------------------------------
:FULLY-SPECIFIED
:DEGREES
644
root 20.018545 17.234918 -19.937773 -98.427059 80.319492 -129.982223
Spine 38.647667 -4.744969 8.094389
Head -4.452567 -3.024821 0.163356
LeftShoulder -15.252009 -41.311145 24.409352
LeftArm -30.320130 -2.764773 -14.558926
LeftForeArm -7.130604 -0.000000 1.209441
LeftHand -12.269962 -0.000000 3.789670
LeftHandThumb1 -26.253704 0.000000 33.147579
RightShoulder -9.717479 3.956113 -17.469093
RightArm -19.859744 40.725149 20.226771
RightForeArm -30.293541 -0.000000 11.573803
RightHand -14.878663 -0.000000 -5.485911
RightHandThumb1 -24.326973 -0.000000 -32.862282
LeftUpLeg -1.704776 12.847672 5.428111
LeftLeg 71.853047 -0.000000 -0.000000
LeftFoot -19.498064 14.923456 -13.654972
LeftToeBase -72.891228 -0.000000 0.000000
RightUpLeg -119.074594 15.928612 7.368450
RightLeg 112.348754 -0.000000 -0.000000
RightFoot -42.844168 -26.755321 14.898962
RightToeBase 21.494331 -0.000000 -0.000000
645
root 20.024019 17.231843 -19.934809 -98.508718 80.316302 -130.075976
Spine 38.640182 -4.757433 8.092696
Head -4.416470 -3.065061 0.149686
LeftShoulder -15.247825 -41.322271 24.438079
LeftArm -30.337623 -2.797820 -14.570189
LeftForeArm -7.054204 -0.000000 1.218214
LeftHand -12.265574 -0.000000 3.829700
LeftHandThumb1 -26.253704 0.000000 33.147579
RightShoulder -9.723623 3.989138 -17.466116
RightArm -19.848846 40.707112 20.246817
RightForeArm -30.320488 -0.000000 11.564860
RightHand -14.860235 -0.000000 -5.450339
RightHandThumb1 -24.326973 -0.000000 -32.862282
LeftUpLeg -1.706394 12.834312 5.433146
LeftLeg 71.846593 -0.000000 -0.000000
LeftFoot -19.497920 14.932312 -13.659065
LeftToeBase -72.695600 -0.000000 0.000000
RightUpLeg -119.088376 15.931498 7.375812
RightLeg 112.371018 -0.000000 -0.000000
RightFoot -42.868701 -26.742396 14.928334
RightToeBase 21.509460 -0.000000 -0.000000
646
root 20.029038 17.230039 -19.931561 -98.588362 80.313995 -130.164898
Spine 38.637439 -4.771127 8.086001
Head -4.403140 -3.021304 0.169783
LeftShoulder -15.238284 -41.342810 24.443203
LeftArm -30.349235 -2.770154 -14.574481
LeftForeArm -7.068886 -0.000000 1.225233
LeftHand -12.226740 -0.000000 3.856318
LeftHandThumb1 -26.253704 0.000000 33.147579
RightShoulder -9.712027 3.989601 -17.457796
RightArm -19.838223 40.697959 20.277328
RightForeArm -30.314039 -0.000000 11.560644
RightHand -14.867241 -0.000000 -5.432301
RightHandThumb1 -24.326973 -0.000000 -32.862282
LeftUpLeg -1.704711 12.818048 5.440265
LeftLeg 71.834896 -0.000000 -0.000000
LeftFoot -19.482301 14.930567 -13.635134
LeftToeBase -72.927253 -0.000000 0.000000
RightUpLeg -119.097035 15.934344 7.380206
RightLeg 112.387801 -0.000000 -0.000000
RightFoot -42.891172 -26.765478 14.933152
RightToeBase 21.525886 -0.000000 -0.000000
647
root 20.033068 17.227888 -19.928474 -98.616066 80.316743 -130.212161
Spine 38.623262 -4.772883 8.080330
Head -4.388983 -3.059840 0.164756
LeftShoulder -15.250910 -41.339564 24.447353
LeftArm -30.321179 -2.789377 -14.569500
LeftForeArm -7.072518 -0.000000 1.216278
LeftHand -12.190538 -0.000000 3.872113
LeftHandThumb1 -26.253704 0.000000 33.147579
RightShoulder -9.709545 3.990041 -17.446584
RightArm -19.826578 40.691745 20.300573
RightForeArm -30.322494 0.000000 11.558994
RightHand -14.887104 -0.000000 -5.420509
RightHandThumb1 -24.326973 -0.000000 -32.862282
LeftUpLeg -1.714843 12.811743 5.442505
LeftLeg 71.826396 -0.000000 -0.000000
LeftFoot -19.479664 14.920051 -13.637538
LeftToeBase -73.072593 -0.000000 0.000000
RightUpLeg -119.114387 15.940674 7.383275
RightLeg 112.402333 -0.000000 -0.000000
RightFoot -42.910521 -26.766028 14.929960
RightToeBase 21.504847 -0.000000 -0.000000
648
root 20.036549 17.225763 -19.925549 -98.663609 80.317467 -130.283166
Spine 38.595154 -4.774507 8.079077
Head -4.370926 -3.055962 0.164920
LeftShoulder -15.251462 -41.342520 24.451276
LeftArm -30.298209 -2.765456 -14.583893
LeftForeArm -7.102277 -0.000000 1.195187
LeftHand -12.187776 0.000000 3.871545
LeftHandThumb1 -26.253704 0.000000 33.147579
RightShoulder -9.701446 3.946212 -17.435697
RightArm -19.818406 40.757849 20.319268
RightForeArm -30.376944 0.000000 11.561113
RightHand -14.907260 -0.000000 -5.384242
RightHandThumb1 -24.326973 -0.000000 -32.862282
LeftUpLeg -1.732797 12.809095 5.446751
LeftLeg 71.829341 -0.000000 -0.000000
LeftFoot -19.468494 14.905661 -13.623229
LeftToeBase -72.758653 -0.000000 0.000000
RightUpLeg -119.139575 15.939803 7.384911
RightLeg 112.415640 -0.000000 -0.000000
RightFoot -42.917421 -26.795077 14.904376
RightToeBase 21.553474 -0.000000 -0.000000
649
root 20.040779 17.224714 -19.922323 -98.651559 80.315893 -130.273777
Spine 38.596896 -4.767409 8.077169
Head -4.368435 -3.040513 0.171060
LeftShoulder -15.252374 -41.340667 24.462651
LeftArm -30.291744 -2.787275 -14.580305
LeftForeArm -7.102850 0.000000 1.183023
LeftHand -12.172373 -0.000000 3.838950
LeftHandThumb1 -26.253704 0.000000 33.147579
RightShoulder -9.688916 3.934180 -17.420485
RightArm -19.808631 40.743978 20.341793
RightForeArm -30.338998 0.000000 11.549542
RightHand -14.905441 -0.000000 -5.405973
RightHandThumb1 -24.326973 -0.000000 -32.862282
LeftUpLeg -1.722962 12.804543 5.456738
LeftLeg 71.812134 -0.000000 -0.000000
LeftFoot -19.459329 14.918143 -13.623368
LeftToeBase -73.030751 -0.000000 0.000000
RightUpLeg -119.133470 15.948560 7.399686
RightLeg 112.425157 -0.000000 -0.000000
RightFoot -42.932430 -26.797172 14.891897
RightToeBase 21.546965 -0.000000 -0.000000
650
root 20.044502 17.223036 -19.919094 -98.616325 80.318099 -130.248814
Spine 38.582694 -4.761536 8.073340
Head -4.357978 -3.038616 0.155050
LeftShoulder -15.251803 -41.352461 24.455780
LeftArm -30.285502 -2.777237 -14.560151
LeftForeArm -7.127632 -0.000000 1.187345
LeftHand -12.182615 -0.000000 3.817964
LeftHandThumb1 -26.253704 0.000000 33.147579
RightShoulder -9.681178 4.003621 -17.444813
RightArm -19.832507 40.671695 20.366569
RightForeArm -30.364631 0.000000 11.530022
RightHand -14.863180 -0.000000 -5.471059
RightHandThumb1 -24.326973 -0.000000 -32.862282
LeftUpLeg -1.721757 12.818348 5.470699
LeftLeg 71.806442 -0.000000 -0.000000
LeftFoot -19.449175 14.886416 -13.631061
LeftToeBase -73.018826 -0.000000 0.000000
RightUpLeg -119.142513 15.960858 7.407684
RightLeg 112.435851 -0.000000 -0.000000
RightFoot -42.942540 -26.771484 14.910582
RightToeBase 21.527146 -0.000000 -0.000000
651
root 20.047821 17.221670 -19.916483 -98.558628 80.317352 -130.194298
Spine 38.575879 -4.739806 8.083156
Head -4.360126 -3.041659 0.149590
LeftShoulder -15.244111 -41.362186 24.455184
LeftArm -30.276095 -2.772664 -14.561913
LeftForeArm -7.173892 0.000000 1.187734
LeftHand -12.208185 -0.000000 3.813459
LeftHandThumb1 -26.253704 0.000000 33.147579
RightShoulder -9.680090 3.930795 -17.423337
RightArm -19.793563 40.726343 20.391017
RightForeArm -30.348983 -0.000000 11.504030
RightHand -14.856858 -0.000000 -5.466264
RightHandThumb1 -24.326973 -0.000000 -32.862282
LeftUpLeg -1.713445 12.825466 5.480749
LeftLeg 71.795784 -0.000000 -0.000000
LeftFoot -19.438456 14.906808 -13.606969
LeftToeBase -73.091219 -0.000000 0.000000
RightUpLeg -119.144904 15.972102 7.422607
RightLeg 112.444659 -0.000000 -0.000000
RightFoot -42.931741 -26.776733 14.890151
RightToeBase 21.513863 -0.000000 -0.000000
652
root 20.051087 17.220114 -19.913211 -98.480889 80.313073 -130.106754
Spine 38.590626 -4.724861 8.082498
Head -4.383567 -3.032093 0.153861
LeftShoulder -15.275731 -41.373420 24.495979
LeftArm -30.278926 -2.779089 -14.577919
LeftForeArm -7.202790 -0.000000 1.220065
LeftHand -12.266154 -0.000000 3.843815
LeftHandThumb1 -26.253704 0.000000 33.147579
RightShoulder -9.685112 3.909354 -17.404987
RightArm -19.732543 40.716173 20.431926
RightForeArm -30.329429 -0.000000 11.471095
RightHand -14.869477 -0.000000 -5.434246
RightHandThumb1 -24.326973 -0.000000 -32.862282
LeftUpLeg -1.691037 12.842530 5.503960
LeftLeg 71.790404 -0.000000 -0.000000
LeftFoot -19.434977 14.887917 -13.607719
LeftToeBase -72.860390 -0.000000 0.000000
RightUpLeg -119.130310 15.985851 7.453702
RightLeg 112.452510 -0.000000 -0.000000
RightFoot -42.934882 -26.762631 14.887859
RightToeBase 21.533544 -0.000000 -0.000000
653
root 20.055073 17.218335 -19.909850 -98.364738 80.304854 -129.976883
Spine 38.597486 -4.721790 8.086885
Head -4.381310 -2.994370 0.128824
LeftShoulder -15.294307 -41.378562 24.510481
LeftArm -30.290289 -2.762714 -14.574606
LeftForeArm -7.195061 -0.000000 1.222622
LeftHand -12.218661 -0.000000 3.805427
LeftHandThumb1 -26.253704 0.000000 33.147579
RightShoulder -9.677746 3.942799 -17.435348
RightArm -19.720849 40.733771 20.464928
RightForeArm -30.396499 -0.000000 11.444537
RightHand -14.867064 -0.000000 -5.488858
RightHandThumb1 -24.326973 -0.000000 -32.862282
LeftUpLeg -1.659737 12.863649 5.534588
LeftLeg 71.781630 -0.000000 -0.000000
LeftFoot -19.428746 14.869045 -13.625396
LeftToeBase -72.849867 -0.000000 0.000000
RightUpLeg -119.109909 16.008444 7.489585
RightLeg 112.463720 -0.000000 -0.000000
RightFoot -42.922126 -26.787718 14.829589
RightToeBase 21.527432 -0.000000 -0.000000
